<svg width="600" height="528" version="1.1" xmlns:xlink="http://www.w3.org/1999/xlink" xmlns="http://www.w3.org/2000/svg">
  <title>北海道地域区分図</title>
  <desc>Author: КОЛЯ</desc>
  <g>
    <clipPath id="window0">
      <rect x="0" y="0" width="600" height="528"/>
    </clipPath>
  </g>
    <rect x="0" y="0" width="600" height="528" fill="#d0d0e0" />
  <g pointer-events="fill" stroke="black" stroke-width="0.4" stroke-linejoin="round">
    <a xlink:href="http://ja.wikipedia.org/wiki/青森県">
      <path d="M203 532l4-15 2-6v-2l1-3-2 1-2 2-5 3h-10l-8-7-2-3-1-1-1-1-3-2-7-2-4-4h-1h-2v5l-2 2-3 5-1 2-1 4-1 4-1 1-1 2v2l-1 2-1 3 1 1-1 2v1v1l-1 1v1v1zM164 532l3-2 4 2zM173 532l10-6v-3l-1 3 2-4 7 10zM136 532l-2-5-1-1-3-1-2 1-6 4h-1l-4-6-3-2h-2v1l-1 2v2v1v2v2z" clip-path="url(#window0)" fill="#c00" />
    </a>  
    <a xlink:href="http://ja.wikipedia.org/wiki/石狩振興局">
      <path d="M192 348l-1 8v3l6-3 5 4h3l5-4v-5l6 2 7 1 3-3 12-2 2-2 4-10 5-3-8-3-1-1-8 7-1-4-5-7-1-3-1-2 2-3v-3l7-5-4-4 3-4v-11l-3 1-1-7v-5l6-6 5-3v-1l-4-3-6-10h-1l-6-9-2-3-7-6h-5l-1-1v4v1l1 2 3 11-2 5v1l-1 2 1 2 2 4 3 9-5 13-8 10-3 3-5 2-4 6-6-4-3 7-4 4v4v1l4 3-1 8 4 1v6z" clip-path="url(#window0)" fill="#c01" />
    </a>
    <a xlink:href="http://ja.wikipedia.org/wiki/渡島総合振興局">
      <path d="M66 508v-1zM101 504l1-1 7-9v1l5-2 2-1h2h1v-1l3-3v-13l4-4 7-2v-1l4-2 2-7 6-1 2 1 1 3-3 4 1 1 1-1 5-3 9 3 7 5h3l4-1 2-2 3-4 5-1 3-2-3-3-1-3-3-2-5-2-7-3-3-6-5-6h-1l-7-10-4-4-12 2-10-8-5-4-10-8 2-12 2-4 8-14 8-5h2h1l1-2-8-1-4 2-6-4-6 2-4-1-2 1 2 3 4 3-1 2-3 10v6l-8 4-5 5-6 4 1 2-2 6-6 4-1 4h1l7 2 4 7 8-1 5-3v3l5 3 5 1 7 2 2 2 2 2h-1l-1 9-1 6-1 6h-1l-6 2-1 6-5 6-1 2-5 4-1 1-4 5h-1l-8-2-5-5h-1v1l-1 2v5l2 6 1 4 4 5 9 3zM27 490l4-2-3-1h-1z" clip-path="url(#window0)" fill="#c02" />
    </a>
    <a xlink:href="http://ja.wikipedia.org/wiki/檜山振興局">
      <path d="M96 455l-4 2-2 7-4 6-2 5v2h1l5 5 8 2h1l4-5 1-1 5-4 1-2 5-6 1-6 6-2h1l1-6 1-6 1-9h1l-2-2-2-2-7-2-5-1-5-3v-3l-5 3-8 1 1 2 2 3 2 5v2v5l-2 5zM37 414l1 4v3l2 5 2-2 3-4 1-8 4-5v-3l-2 2h-2l-2 1h-2h-2l-1 2-1 1-1 2zM92 371l-8-6-9-2v2v2l1 1v2v5v4l-1 8-2 3-1 2-2 1-1 4v2l1 3-1 2 1 2 2 2 5 3 2 3 1 2v1l1 2 1-4 6-4 2-6-1-2 6-4 5-5 8-4v-6l3-10 1-2-4-3-2-3-2-2-4 8-3-1z" clip-path="url(#window0)" fill="#c03" />
    </a>
    <a xlink:href="http://ja.wikipedia.org/wiki/後志総合振興局">
      <path d="M156 360h2l5-3 4 1 5 3 4-5v-1l2 1 5-8-2-5h2v-6l-4-1 1-8-4-3v-1v-4l4-4 3-7 6 4 4-6 5-2 3-3-1-2-8 6-12-4-3-3 2-4h-3l-2 1h-2l-3 2h-3l-1-1v1l-1 1-2 1-5-4-2-2-3-1-4-2-2-4h-2l-2-3-2-2-2-2-3-2h-1h-1l-1 3-5 1h-4l-1 6v1l-1 1v2v4l2 3 1 2 2 1 3 4 1 1v1l3 4 1 3 3 3-1 3-6 5h-1l-3 3-2 2-1 1-1 3-3 4-2 3-2 5-4-3-5-3v1l-5 7h-1l-4 2-5 4h-6l-6 2-1 2-1 1v1l-2 2 9 2 8 6h5l3 1 4-8 2 2 2-1 4 1 6-2 6 4 4-2 8 1 1-4 1-1v-7v-1h11l5 1v5v1z" clip-path="url(#window0)" fill="#c04" />
    </a>
    <a xlink:href="http://ja.wikipedia.org/wiki/空知総合振興局">
      <path d="M240 330l1 1 8 3 6 4 1 4 6 1 2-2 3-1 2-3 4-6h4l7-3 2-4 1-4-4-2-1-6 3-12v-2v-4l1-8 4-3 1-4 1-7-3-9-2-3-1-8-4-2-3 1-2-8 6-10-2-5-6-7-3-7-2-10h-1l-1 2-2 4h-5l-7 6-1 6-2 5-5 2-2 6-1 2-5-4v5l-3-1-12 5-2 1-1 2 2 3 6 9h1l6 10 4 3v1l-5 3-6 6v5l1 7 3-1v11l-3 4 4 4-7 5v3l-2 3 1 2 1 3 5 7 1 4z" clip-path="url(#window0)" fill="#c05" />
    </a>
    <a xlink:href="http://ja.wikipedia.org/wiki/上川総合振興局">
      <path d="M287 320l-1 4-2 4 3 7 1 3 4 1 4-5 10 2 4-6 8-3 4-2 1 1 1-1-1-8 4-11-4-9 3-11-8-7 1-1 11-11 7-6 6 4 4 1 1-3 4-2 5-2 1-1h-1l3-7-2-3 2-3v-2l-1-4-3 1h-8v-7v-9l3-3-1-1-5-2-8 2-1-4 2-3-4-16-1-4h2l1-8-4-8-2-5 5-12-1-2h-8l-3-3-5 5-5 1v-2l5-14v-2l-1-1-8-2-4 4-6-10v-1l-9-9 1-4-3-5h-4l-4 3-2-7-1-5h-7l-2-1-1 1-2 3 1 3-1 5v3l-1 2 1 11 1 8 3 9 5 5-3 5-5 4 1 4v1l2 6-3 4 3 3-2 1 3 4v4l-1 5v8h1l2 10 3 7 6 7 2 5-6 10 2 8 3-1 4 2 1 8 2 3 3 9-1 7-1 4-4 3-1 8v4v2l-3 12 1 6z" clip-path="url(#window0)" fill="#c06" />
    </a>
    <a xlink:href="http://ja.wikipedia.org/wiki/留萌振興局">
      <path d="M230 220l-10 8h-3l-5 3-2 3-3 4 1 1h5l7 6 1-2 2-1 12-5 3 1v-5l5 4 1-2 2-6 5-2 2-5 1-6 7-6h5l2-4 1-2v-8l1-5v-4l-3-4 2-1-3-3 3-4-2-6v-1l-1-4 5-4 3-5-5-5-3-9-1-8-1-11 1-2v-3l1-5-1-3 2-3 1-1h-3h-7l-4-10-10 3v10v1l2 7 2 11v8l-1 6-3 18-6 10-1 3-2 13v6v17l-1 2v2l-2 6zM206 160l3-2v-1l-3 3zM217 158h-3z" clip-path="url(#window0)" fill="#c07" />
    </a>
    <a xlink:href="http://ja.wikipedia.org/wiki/宗谷総合振興局">
      <path d="M277 106l1 5 2 7 4-3h4l3 5-1 4 9 9v1l6 10 4-4 8 2 1 1 15-10 1-1-5-5-5-7-6-9-5-11-2-3-1-3-1-2-2-4-12-13-8-10-6-10-10-7-2-5-6-9-4 1-1 2-2 6-5 4-8 1-3-4-2-2 1 10-3 6-4 15 5 14 2 3 5 18v-10l10-3 4 10h7h3l2 1zM197 66l-1 2v1v2h1l-1 2 1 2 5 5 2 1h1l2-1 2-2 3-6-4-6-4-2h-1l-2-1h-1v1l-2 1zM186 54l1 3v3h2l1-6 1-4v-5l-2-5-3 2-2-3v2l1 3v2v3l1 2z" clip-path="url(#window0)" fill="#c08" />
    </a>
    <a xlink:href="http://ja.wikipedia.org/wiki/オホーツク総合振興局">
      <path d="M360 258l1 1 4 4h1h8l8 4 2 1 4-4 5-6 4-1 1-4 5 2 3-2 2 3 3-1 2 4 3 5 5 2 4 5 1 1 3 1 6-1 3-5h10v-9v-2l6-9 3-1h8l5 3 2 2 5 6 7-4 7-5-1-6v-3l7-2 4-4 4-5-2-2-1-1 6-5 4-5 4-6 7-7 3-6 6-3 3-6 3-7 2-9h-1l-1 1v1l-1 1-1 1-2 3-2 3-2 3-5 6-3 2-3 3-2 2-2 2h-2l-1 3-2 1-2 3-2 1-6 7-4 5-9 2-12-1h-3l-7-2-6-1v-1l-5-4-3-6-1-3v-4l-4 1-7-2h-1l-6-1-9-3-12-4-11-4-7-4-3-1-13-9-7-7-4-4-11-7-3-4h-1l-8-8-2-3-7-7-1 1-15 10v2l-5 14v2l5-1 5-5 3 3h8l1 2-5 12 2 5 4 8-1 8h-2l1 4 4 16-2 3 1 4 8-2 5 2 1 1-3 3v9v7h8l3-1 1 4v2l-2 3 2 3-3 7h1z" clip-path="url(#window0)" fill="#c09" />
    </a>
    <a xlink:href="http://ja.wikipedia.org/wiki/胆振総合振興局">
      <path d="M166 394l8 4-2 2-4-1 2 3 4 1 2-3 2-2 10-10 2-2 12-8 8-5 11-5 13-4-3 3 11 4 2-1 5 3 2 1 6 5 5-2 1-1 7-4 1-4 4-7 4-6 6-3 1-6 2-8-1-3-3-7-7 3h-4l-4 6-2 3-3 1-2 2-6-1-1-4-6-4-5 3-4 10-2 2-12 2-3 3-7-1-6-2v5l-5 4h-3l-5-4-6 3v-3l1-8-9-5h-2l2 5-5 8-2-1v1l-4 5-5-3-4-1-5 3h-2l-2 1v-1v-5l-5-1h-11v1v7l-1 1-1 4-1 2 3 2h3l6-2 4 2 1 1 3 5 1 1 3 3 4 4 3 8z" clip-path="url(#window0)" fill="#c10" />
    </a>
    <a xlink:href="http://ja.wikipedia.org/wiki/日高振興局">
      <path d="M350 435l2 2 7 9 4 3 2 2 3-12v1l2-3v-3l2-10h-1l-10-4-1-2-6-6-5-6-5-7-4-6-6-5v-4l-4-8-7-11 2-2-1-5-5-2-1-1 1-1 2-2 1-7 5-4-3-3 2-4-3-8-1-1-4 2-8 3-4 6-10-2-4 5-4-1-2 8-1 6-6 3-4 6-4 7-1 4-7 4-1 1-5 2 3 4 16 6 2 3 3 3 6 6 3 3 9 6 12 6 3 1 13 7 5 2 5 2 7 3z" clip-path="url(#window0)" fill="#c11" />
    </a>
    <a xlink:href="http://ja.wikipedia.org/wiki/十勝総合振興局">
      <path d="M344 399l5 7 5 6 6 6 1 2 10 4h1l-1-8 2-12 4-10 2-3 6-9 4-6 3-3 11-13 4-3 8-8 3-4-3-2-5-6-1-6-5-4 1-4 4-8v-2l1-3v-2l2-5 1-4 2-6 6-3 5-4 4-2 2-6-3-5-3-1-1-1-4-5-5-2-3-5-2-4-3 1-2-3-3 2-5-2-1 4-4 1-5 6-4 4-2-1-8-4h-8h-1l-4-4-1-1h-2l-1 1-5 2-4 2-1 3-4-1-6-4-7 6-11 11-1 1 8 7-3 11 4 9-4 11 1 8-1 1 3 8-2 4 3 3-5 4-1 7-2 2-1 1 1 1 5 2 1 5-2 2 7 11 4 8v4l6 5z" clip-path="url(#window0)" fill="#c12" />
    </a>
    <a xlink:href="http://ja.wikipedia.org/wiki/釧路総合振興局">
      <path d="M470 334h1l6-1h3l8 1h7l-2-2-2-5 4-6 5-1v3l2 3 4 2h2h1h1l1 1 1-1 1-1h2l1-1v-2l3-2 2-1 3-4 2-8 3 1h2l2-1 6-3 1 1 1-1-4-6-3 1-4-5-3 1-4 2h-6l-2 3-4-3-5-1-4-4-7-2-9-6v-1l-3-9 9-5-13-11h-1l-1-3-5-6-2-2-5-3h-8l-3 1-6 9v2v9h-10l-3 5-6 1 3 5-2 6-4 2-5 4-6 3-2 6-1 4-2 5v2l-1 3v2l-4 8-1 4 5 4 1 6 5 6 3 2 8-6 4-3 11-6 8-3h7l7 5 6 2zM528 317h-1h-3v1h2z" clip-path="url(#window0)" fill="#c13" />
    </a>
    <a xlink:href="http://ja.wikipedia.org/wiki/根室振興局">
      <g fill="#c14">
        <path d="M563 302l1-1v-1zM530 296l4 5 3-1 4 6 3-1h3l9 1-1 1h2v-1l1-2v-1l2-2 1-6 1-2 2-1v-1l2-2 4-1 4-1 2-1 1 1 1-2 1-1 2-1v-1l1-1h-2l-2-1-1-1-1 1h-1l-3 1h-2l-1-1-1 1-1 1-2 2-3 2-2 2-2 2-2 2v1l-10-1-8-9-2-4-2-10-1-5-3-8 1-2 2 1 2 1-2 2 2-1h1v1l3-1 2 1-1 1h1l-2 2-1 1h-1h4l1-3-9-4-8-4-2-4-5-8 1-7 2-5v-5l3-8 5-6 3-7 2-6 4-4 2-4 1-3v-2l1-1v-2l-1-2v-3l-1-3-2 9-3 7-3 6-6 3-3 6-7 7-4 6-4 5-6 5 1 1 2 2-4 5-4 4-7 2v3l1 6-7 5-7 4 1 3h1l13 11-9 5 3 9v1l9 6 7 2 4 4 5 1 4 3 2-3h6l4-2z" clip-path="url(#window0)" />
      </g>
    </a>
    <path d="M444 211h4l-5 10-3-3zM442 200h4l-1 6-6 4v-9zM264 296l-2 2 3-1 1 3-2-2-4 2zM533 285h6l7 8 7 2-13-1-2-4 3 1-7-1zM203 346l7 7-10 5-3-6zM257 216v4l-2-1zM282 168h3l-3 2 3 4-4 2-3-5 2 1 2-3-2-2zM303 308l4-1-9 6zM324 196l1 6-3-4zM292 80l-1-3 4 2zM403 188l27 8h-3l-2 6-3-3-13 1-7-9zM160 364l4-1 4 4-4 6-7-2zM315 385l4 6-6-2zM360 278l4 6h-2zM501 319h6l1 5-6-1zM476 257l1 3-4 3-1-4zM453 251l11-1-7 12-6-5zM438 272l3 5-7-3z" clip-path="url(#window0)" pointer-events="none" fill="#ffffff" />
  </g>
  <g>
  </g>
</svg>